# Blender 4.5.3 LTS
# www.blender.org
mtllib anillo.mtl
o Circle
v 0.000000 13.000000 0.000002
v -2.536174 12.750208 0.000002
v -4.974885 12.010433 0.000002
v -7.222413 10.809105 0.000002
v -9.192388 9.192388 0.000001
v -10.809105 7.222413 0.000001
v -12.010433 4.974885 0.000001
v -12.750208 2.536174 0.000000
v -13.000000 0.000000 0.000000
v -12.750208 -2.536174 -0.000000
v -12.010433 -4.974885 -0.000001
v -10.809105 -7.222413 -0.000001
v -9.192388 -9.192388 -0.000001
v -7.222413 -10.809105 -0.000002
v -4.974885 -12.010433 -0.000002
v -2.536174 -12.750208 -0.000002
v 0.000000 -13.000000 -0.000002
v 2.536174 -12.750208 -0.000002
v 4.974885 -12.010433 -0.000002
v 7.222413 -10.809105 -0.000002
v 9.192388 -9.192388 -0.000001
v 10.809105 -7.222413 -0.000001
v 12.010433 -4.974885 -0.000001
v 12.750208 -2.536174 -0.000000
v 13.000000 0.000000 0.000000
v 12.750208 2.536174 0.000000
v 12.010433 4.974885 0.000001
v 10.809105 7.222413 0.000001
v 9.192388 9.192388 0.000001
v 7.222413 10.809105 0.000002
v 4.974885 12.010433 0.000002
v 2.536174 12.750208 0.000002
v 0.000000 11.391055 0.000002
v -2.222285 11.172178 0.000002
v -4.359169 10.523962 0.000002
v -6.328531 9.471316 0.000002
v -8.054692 8.054692 0.000001
v -9.471316 6.328531 0.000001
v -10.523962 4.359169 0.000001
v -11.172178 2.222285 0.000000
v -11.391055 0.000000 -0.000000
v -11.172178 -2.222285 -0.000000
v -10.523962 -4.359169 -0.000001
v -9.471316 -6.328531 -0.000001
v -8.054692 -8.054692 -0.000001
v -6.328531 -9.471316 -0.000002
v -4.359169 -10.523962 -0.000002
v -2.222285 -11.172178 -0.000002
v 0.000000 -11.391055 -0.000002
v 2.222285 -11.172178 -0.000002
v 4.359169 -10.523962 -0.000002
v 6.328531 -9.471316 -0.000002
v 8.054692 -8.054692 -0.000001
v 9.471316 -6.328531 -0.000001
v 10.523962 -4.359169 -0.000001
v 11.172178 -2.222285 -0.000000
v 11.391055 0.000000 -0.000000
v 11.172178 2.222285 0.000000
v 10.523962 4.359169 0.000001
v 9.471316 6.328531 0.000001
v 8.054692 8.054692 0.000001
v 6.328531 9.471316 0.000002
v 4.359169 10.523962 0.000002
v 2.222285 11.172178 0.000002
v -2.536174 12.750208 -2.033093
v -0.000000 13.000000 -2.033093
v -4.974885 12.010433 -2.033093
v -7.222413 10.809105 -2.033094
v -9.192388 9.192388 -2.033094
v -10.809105 7.222414 -2.033094
v -12.010433 4.974885 -2.033095
v -12.750208 2.536175 -2.033095
v -13.000000 0.000000 -2.033095
v -12.750208 -2.536174 -2.033096
v -12.010433 -4.974885 -2.033096
v -10.809105 -7.222413 -2.033097
v -9.192388 -9.192388 -2.033097
v -7.222413 -10.809105 -2.033097
v -4.974885 -12.010433 -2.033097
v -2.536174 -12.750208 -2.033098
v -0.000000 -13.000000 -2.033098
v 2.536174 -12.750208 -2.033098
v 4.974885 -12.010433 -2.033097
v 7.222413 -10.809105 -2.033097
v 9.192388 -9.192388 -2.033097
v 10.809105 -7.222413 -2.033097
v 12.010433 -4.974885 -2.033096
v 12.750208 -2.536174 -2.033096
v 13.000000 0.000000 -2.033095
v 12.750208 2.536175 -2.033095
v 12.010433 4.974885 -2.033095
v 10.809105 7.222414 -2.033094
v 9.192388 9.192388 -2.033094
v 7.222413 10.809105 -2.033094
v 4.974885 12.010433 -2.033093
v 2.536174 12.750208 -2.033093
v -2.222285 11.172178 -2.033093
v 0.000000 11.391055 -2.033093
v -4.359169 10.523962 -2.033094
v -6.328531 9.471316 -2.033094
v -8.054692 8.054692 -2.033094
v -9.471316 6.328532 -2.033094
v -10.523962 4.359169 -2.033095
v -11.172178 2.222285 -2.033095
v -11.391055 0.000000 -2.033095
v -11.172178 -2.222285 -2.033096
v -10.523962 -4.359168 -2.033096
v -9.471316 -6.328531 -2.033096
v -8.054692 -8.054692 -2.033097
v -6.328531 -9.471316 -2.033097
v -4.359169 -10.523962 -2.033097
v -2.222285 -11.172178 -2.033097
v 0.000000 -11.391055 -2.033097
v 2.222285 -11.172178 -2.033097
v 4.359169 -10.523962 -2.033097
v 6.328531 -9.471316 -2.033097
v 8.054692 -8.054692 -2.033097
v 9.471316 -6.328531 -2.033096
v 10.523962 -4.359168 -2.033096
v 11.172178 -2.222285 -2.033096
v 11.391055 0.000000 -2.033095
v 11.172178 2.222285 -2.033095
v 10.523962 4.359169 -2.033095
v 9.471316 6.328532 -2.033094
v 8.054692 8.054692 -2.033094
v 6.328531 9.471316 -2.033094
v 4.359169 10.523962 -2.033094
v 2.222285 11.172178 -2.033093
vn -0.0000 -0.0000 1.0000
vn -0.0000 -0.0000 -1.0000
vn -0.6344 0.7730 -0.0000
vn 0.9569 0.2903 -0.0000
vn -0.7730 0.6344 -0.0000
vn 0.8819 0.4714 -0.0000
vn -0.0980 0.9952 -0.0000
vn -0.8819 0.4714 -0.0000
vn 0.7730 0.6344 -0.0000
vn -0.2903 0.9569 -0.0000
vn -0.9569 0.2903 -0.0000
vn 0.6344 0.7730 -0.0000
vn -0.4714 0.8819 -0.0000
vn -0.9952 0.0980 -0.0000
vn 0.4714 0.8819 -0.0000
vn -0.9952 -0.0980 -0.0000
vn 0.2903 0.9569 -0.0000
vn -0.9569 -0.2903 -0.0000
vn 0.0980 0.9952 -0.0000
vn -0.8819 -0.4714 -0.0000
vn 0.0980 -0.9952 -0.0000
vn -0.7730 -0.6344 -0.0000
vn 0.2903 -0.9569 -0.0000
vn -0.6344 -0.7730 -0.0000
vn 0.4714 -0.8819 -0.0000
vn -0.4714 -0.8819 -0.0000
vn 0.6344 -0.7730 -0.0000
vn -0.2903 -0.9569 -0.0000
vn 0.7730 -0.6344 -0.0000
vn -0.0980 -0.9952 -0.0000
vn 0.8819 -0.4714 -0.0000
vn 0.9569 -0.2903 -0.0000
vn 0.9952 -0.0980 -0.0000
vn 0.9952 0.0980 -0.0000
vt 0.000000 0.000000
s 0
f 23/1/1 55/1/1 54/1/1 22/1/1
f 10/1/1 42/1/1 41/1/1 9/1/1
f 24/1/1 56/1/1 55/1/1 23/1/1
f 11/1/1 43/1/1 42/1/1 10/1/1
f 25/1/1 57/1/1 56/1/1 24/1/1
f 12/1/1 44/1/1 43/1/1 11/1/1
f 26/1/1 58/1/1 57/1/1 25/1/1
f 13/1/1 45/1/1 44/1/1 12/1/1
f 27/1/1 59/1/1 58/1/1 26/1/1
f 14/1/1 46/1/1 45/1/1 13/1/1
f 28/1/1 60/1/1 59/1/1 27/1/1
f 15/1/1 47/1/1 46/1/1 14/1/1
f 2/1/1 34/1/1 33/1/1 1/1/1
f 29/1/1 61/1/1 60/1/1 28/1/1
f 16/1/1 48/1/1 47/1/1 15/1/1
f 3/1/1 35/1/1 34/1/1 2/1/1
f 30/1/1 62/1/1 61/1/1 29/1/1
f 17/1/1 49/1/1 48/1/1 16/1/1
f 4/1/1 36/1/1 35/1/1 3/1/1
f 31/1/1 63/1/1 62/1/1 30/1/1
f 18/1/1 50/1/1 49/1/1 17/1/1
f 5/1/1 37/1/1 36/1/1 4/1/1
f 32/1/1 64/1/1 63/1/1 31/1/1
f 19/1/1 51/1/1 50/1/1 18/1/1
f 6/1/1 38/1/1 37/1/1 5/1/1
f 1/1/1 33/1/1 64/1/1 32/1/1
f 20/1/1 52/1/1 51/1/1 19/1/1
f 7/1/1 39/1/1 38/1/1 6/1/1
f 21/1/1 53/1/1 52/1/1 20/1/1
f 8/1/1 40/1/1 39/1/1 7/1/1
f 22/1/1 54/1/1 53/1/1 21/1/1
f 9/1/1 41/1/1 40/1/1 8/1/1
f 87/1/2 86/1/2 118/1/2 119/1/2
f 74/1/2 73/1/2 105/1/2 106/1/2
f 88/1/2 87/1/2 119/1/2 120/1/2
f 75/1/2 74/1/2 106/1/2 107/1/2
f 89/1/2 88/1/2 120/1/2 121/1/2
f 76/1/2 75/1/2 107/1/2 108/1/2
f 90/1/2 89/1/2 121/1/2 122/1/2
f 77/1/2 76/1/2 108/1/2 109/1/2
f 91/1/2 90/1/2 122/1/2 123/1/2
f 78/1/2 77/1/2 109/1/2 110/1/2
f 92/1/2 91/1/2 123/1/2 124/1/2
f 79/1/2 78/1/2 110/1/2 111/1/2
f 65/1/2 66/1/2 98/1/2 97/1/2
f 93/1/2 92/1/2 124/1/2 125/1/2
f 80/1/2 79/1/2 111/1/2 112/1/2
f 67/1/2 65/1/2 97/1/2 99/1/2
f 94/1/2 93/1/2 125/1/2 126/1/2
f 81/1/2 80/1/2 112/1/2 113/1/2
f 68/1/2 67/1/2 99/1/2 100/1/2
f 95/1/2 94/1/2 126/1/2 127/1/2
f 82/1/2 81/1/2 113/1/2 114/1/2
f 69/1/2 68/1/2 100/1/2 101/1/2
f 96/1/2 95/1/2 127/1/2 128/1/2
f 83/1/2 82/1/2 114/1/2 115/1/2
f 70/1/2 69/1/2 101/1/2 102/1/2
f 66/1/2 96/1/2 128/1/2 98/1/2
f 84/1/2 83/1/2 115/1/2 116/1/2
f 71/1/2 70/1/2 102/1/2 103/1/2
f 85/1/2 84/1/2 116/1/2 117/1/2
f 72/1/2 71/1/2 103/1/2 104/1/2
f 86/1/2 85/1/2 117/1/2 118/1/2
f 73/1/2 72/1/2 104/1/2 105/1/2
f 52/1/3 53/1/3 117/1/3 116/1/3
f 27/1/4 26/1/4 90/1/4 91/1/4
f 53/1/5 54/1/5 118/1/5 117/1/5
f 28/1/6 27/1/6 91/1/6 92/1/6
f 2/1/7 1/1/7 66/1/7 65/1/7
f 54/1/8 55/1/8 119/1/8 118/1/8
f 29/1/9 28/1/9 92/1/9 93/1/9
f 3/1/10 2/1/10 65/1/10 67/1/10
f 55/1/11 56/1/11 120/1/11 119/1/11
f 30/1/12 29/1/12 93/1/12 94/1/12
f 4/1/13 3/1/13 67/1/13 68/1/13
f 56/1/14 57/1/14 121/1/14 120/1/14
f 31/1/15 30/1/15 94/1/15 95/1/15
f 5/1/3 4/1/3 68/1/3 69/1/3
f 57/1/16 58/1/16 122/1/16 121/1/16
f 32/1/17 31/1/17 95/1/17 96/1/17
f 6/1/5 5/1/5 69/1/5 70/1/5
f 58/1/18 59/1/18 123/1/18 122/1/18
f 1/1/19 32/1/19 96/1/19 66/1/19
f 7/1/8 6/1/8 70/1/8 71/1/8
f 59/1/20 60/1/20 124/1/20 123/1/20
f 33/1/21 34/1/21 97/1/21 98/1/21
f 8/1/11 7/1/11 71/1/11 72/1/11
f 60/1/22 61/1/22 125/1/22 124/1/22
f 34/1/23 35/1/23 99/1/23 97/1/23
f 9/1/14 8/1/14 72/1/14 73/1/14
f 61/1/24 62/1/24 126/1/24 125/1/24
f 35/1/25 36/1/25 100/1/25 99/1/25
f 10/1/16 9/1/16 73/1/16 74/1/16
f 62/1/26 63/1/26 127/1/26 126/1/26
f 36/1/27 37/1/27 101/1/27 100/1/27
f 11/1/18 10/1/18 74/1/18 75/1/18
f 63/1/28 64/1/28 128/1/28 127/1/28
f 37/1/29 38/1/29 102/1/29 101/1/29
f 12/1/20 11/1/20 75/1/20 76/1/20
f 64/1/30 33/1/30 98/1/30 128/1/30
f 38/1/31 39/1/31 103/1/31 102/1/31
f 13/1/22 12/1/22 76/1/22 77/1/22
f 39/1/32 40/1/32 104/1/32 103/1/32
f 14/1/24 13/1/24 77/1/24 78/1/24
f 40/1/33 41/1/33 105/1/33 104/1/33
f 15/1/26 14/1/26 78/1/26 79/1/26
f 41/1/34 42/1/34 106/1/34 105/1/34
f 16/1/28 15/1/28 79/1/28 80/1/28
f 42/1/4 43/1/4 107/1/4 106/1/4
f 17/1/30 16/1/30 80/1/30 81/1/30
f 43/1/6 44/1/6 108/1/6 107/1/6
f 18/1/21 17/1/21 81/1/21 82/1/21
f 44/1/9 45/1/9 109/1/9 108/1/9
f 19/1/23 18/1/23 82/1/23 83/1/23
f 45/1/12 46/1/12 110/1/12 109/1/12
f 20/1/25 19/1/25 83/1/25 84/1/25
f 46/1/15 47/1/15 111/1/15 110/1/15
f 21/1/27 20/1/27 84/1/27 85/1/27
f 47/1/17 48/1/17 112/1/17 111/1/17
f 22/1/29 21/1/29 85/1/29 86/1/29
f 48/1/19 49/1/19 113/1/19 112/1/19
f 23/1/31 22/1/31 86/1/31 87/1/31
f 49/1/7 50/1/7 114/1/7 113/1/7
f 24/1/32 23/1/32 87/1/32 88/1/32
f 50/1/10 51/1/10 115/1/10 114/1/10
f 25/1/33 24/1/33 88/1/33 89/1/33
f 51/1/13 52/1/13 116/1/13 115/1/13
f 26/1/34 25/1/34 89/1/34 90/1/34
