# Blender 4.5.3 LTS
# www.blender.org
mtllib esfera.mtl
o Mball
v -0.600000 3.876980 -1.400000
v -0.600000 3.800000 -1.482986
v -0.492673 3.800000 -1.400000
v -0.600000 3.400000 -1.765840
v -0.200000 3.400000 -1.451375
v -0.200000 3.473428 -1.400000
v -0.200000 3.800000 -1.022866
v -0.155228 3.400000 -1.400000
v 0.075355 3.400000 -1.000000
v -0.187739 3.800000 -1.000000
v -0.200000 3.813050 -1.000000
v -0.200000 3.930745 -0.600000
v -0.077934 3.800000 -0.600000
v -0.200000 3.896621 -0.200000
v -0.109322 3.800000 -0.200000
v 0.140505 3.400000 -0.200000
v 0.165444 3.400000 -0.600000
v 0.200000 3.219448 -0.200000
v 0.200000 3.298731 -0.600000
v 0.187399 3.000000 -1.000000
v 0.200000 3.000000 -0.955975
v 0.200000 2.600000 -0.952811
v 0.186496 2.600000 -1.000000
v 0.200000 2.308912 -0.600000
v 0.072284 2.200000 -1.000000
v 0.162499 2.200000 -0.600000
v -0.084552 1.800000 -0.600000
v -0.195094 1.800000 -1.000000
v -0.200000 2.133842 -1.400000
v -0.200000 1.800000 -1.009143
v -0.159228 2.200000 -1.400000
v -0.200000 1.794810 -1.000000
v -0.600000 1.492300 -1.000000
v -0.502330 1.800000 -1.400000
v -0.600000 1.730034 -1.400000
v -0.600000 1.800000 -1.475878
v -1.000000 1.564403 -1.400000
v -1.000000 1.800000 -1.654272
v -1.000000 2.003258 -1.800000
v -0.600000 2.200000 -1.762497
v -0.682162 2.200000 -1.800000
v -0.600000 2.293690 -1.800000
v -1.000000 2.200000 -1.901637
v -0.600000 2.600000 -1.882932
v -1.000000 2.600000 -2.013326
v -0.600000 3.000000 -1.883895
v -1.000000 3.000000 -2.014417
v -0.600000 3.313480 -1.800000
v -0.674802 3.400000 -1.800000
v -1.000000 3.400000 -1.905236
v -1.000000 3.604157 -1.800000
v -1.400000 3.641971 -1.800000
v -1.400000 3.400000 -1.928714
v -1.000000 3.800000 -1.660467
v -1.400000 3.800000 -1.684829
v -1.800000 3.467904 -1.800000
v -1.800000 3.800000 -1.571069
v -1.800000 3.959220 -1.400000
v -1.400000 4.066988 -1.400000
v -1.800000 4.183282 -1.000000
v -1.400000 4.200000 -1.174208
v -1.747038 4.200000 -1.000000
v -1.400000 4.275440 -1.000000
v -1.800000 4.271868 -0.600000
v -1.800000 4.200000 -0.945326
v -1.400000 4.358915 -0.600000
v -1.800000 4.247913 -0.200000
v -1.400000 4.335388 -0.200000
v -1.400000 4.200000 0.195306
v -1.800000 4.200000 -0.033399
v -1.800000 4.101357 0.200000
v -1.400000 4.197957 0.200000
v -1.400000 3.914791 0.600000
v -1.779280 3.800000 0.600000
v -1.800000 3.800000 0.591184
v -1.800000 3.790205 0.600000
v -1.400000 3.800000 0.705280
v -1.400000 3.400000 0.950640
v -1.800000 3.400000 0.856754
v -1.800000 3.000000 0.969925
v -1.400000 3.249822 1.000000
v -1.696110 3.000000 1.000000
v -1.800000 2.600000 0.968973
v -1.692362 2.600000 1.000000
v -1.800000 2.200000 0.853516
v -1.400000 2.357427 1.000000
v -1.400000 2.200000 0.947560
v -1.800000 1.816748 0.600000
v -1.400000 1.800000 0.698694
v -1.764247 1.800000 0.600000
v -1.400000 1.693155 0.600000
v -1.800000 1.505498 0.200000
v -1.800000 1.800000 0.584797
v -1.400000 1.408550 0.200000
v -1.400000 1.400000 0.180217
v -1.800000 1.400000 -0.056609
v -1.800000 1.359535 -0.200000
v -1.400000 1.272409 -0.200000
v -1.400000 1.248279 -0.600000
v -1.800000 1.335057 -0.600000
v -1.400000 1.331411 -1.000000
v -1.725061 1.400000 -1.000000
v -1.800000 1.400000 -0.922638
v -1.800000 1.423471 -1.000000
v -1.400000 1.400000 -1.159105
v -1.400000 1.540089 -1.400000
v -1.800000 1.647997 -1.400000
v -1.400000 1.800000 -1.679071
v -1.800000 1.800000 -1.564471
v -1.800000 2.139370 -1.800000
v -1.400000 1.965406 -1.800000
v -1.400000 2.200000 -1.925417
v -1.800000 2.200000 -1.831857
v -1.400000 2.600000 -2.034885
v -1.800000 2.600000 -1.948275
v -1.400000 3.000000 -2.035887
v -1.800000 3.000000 -1.949288
v -1.800000 3.400000 -1.835294
v -1.875698 3.400000 -1.800000
v -2.098657 3.000000 -1.800000
v -2.200000 3.000000 -1.733217
v -2.200000 3.400000 -1.595831
v -2.200000 2.600000 -1.731983
v -2.096935 2.600000 -1.800000
v -2.200000 2.200000 -1.592144
v -1.868290 2.200000 -1.800000
v -2.528148 2.600000 -1.400000
v -2.389921 2.200000 -1.400000
v -2.600000 2.200000 -1.050137
v -2.600000 2.600000 -1.288376
v -2.529385 3.000000 -1.400000
v -2.600000 3.000000 -1.290162
v -2.393577 3.400000 -1.400000
v -2.600000 3.400000 -1.057934
v -2.600000 3.450796 -1.000000
v -2.200000 3.670615 -1.400000
v -2.200000 3.800000 -1.255907
v -2.364019 3.800000 -1.000000
v -2.200000 3.954407 -1.000000
v -2.600000 3.621244 -0.600000
v -2.472958 3.800000 -0.600000
v -2.600000 3.575953 -0.200000
v -2.443151 3.800000 -0.200000
v -2.200000 4.028919 -0.200000
v -2.200000 4.058308 -0.600000
v -2.200000 3.856419 0.200000
v -2.260033 3.800000 0.200000
v -1.962701 4.200000 -0.600000
v -1.908324 4.200000 -0.200000
v -2.544571 3.400000 0.200000
v -2.600000 3.400000 0.079250
v -2.600000 3.254111 0.200000
v -2.664321 3.000000 0.200000
v -2.796363 3.000000 -0.200000
v -2.689081 3.400000 -0.200000
v -2.663301 2.600000 0.200000
v -2.795523 2.600000 -0.200000
v -2.600000 2.353171 0.200000
v -2.600000 2.200000 0.071378
v -2.686268 2.200000 -0.200000
v -2.600000 2.031245 -0.200000
v -2.600000 1.986300 -0.600000
v -2.711201 2.200000 -0.600000
v -2.600000 2.156490 -1.000000
v -2.622699 2.200000 -1.000000
v -2.739077 2.600000 -1.000000
v -2.820907 2.600000 -0.600000
v -2.740116 3.000000 -1.000000
v -2.821958 3.000000 -0.600000
v -2.436702 1.800000 -0.200000
v -2.467067 1.800000 -0.600000
v -2.200000 1.578851 -0.200000
v -2.200000 1.548917 -0.600000
v -2.200000 1.652883 -1.000000
v -2.357383 1.800000 -1.000000
v -2.200000 1.800000 -1.246287
v -2.200000 1.750843 0.200000
v -2.252619 1.800000 0.200000
v -2.200000 1.800000 0.267362
v -1.891750 1.400000 -0.200000
v -1.947624 1.400000 -0.600000
v -2.541027 2.200000 0.200000
v -2.600000 2.600000 0.309712
v -2.375174 2.600000 0.600000
v -2.215955 2.200000 0.600000
v -2.600000 3.000000 0.311614
v -2.376447 3.000000 0.600000
v -2.200000 2.600000 0.753571
v -2.200000 3.000000 0.754742
v -2.220844 3.400000 0.600000
v -2.200000 3.400000 0.618217
v -2.200000 3.430129 0.600000
v -2.200000 2.200000 0.613946
v -2.200000 2.177181 0.600000
v -2.714649 3.400000 -0.600000
v -2.200000 3.800000 0.276873
v -2.626214 3.400000 -1.000000
v -2.200000 1.936555 -1.400000
v -2.049175 1.800000 -1.400000
v -1.000000 1.400000 -1.112324
v -1.000000 1.351611 -1.000000
v -0.825880 1.400000 -1.000000
v -1.000000 1.268467 -0.600000
v -0.603370 1.400000 -0.600000
v -0.600000 1.401424 -0.600000
v -0.600000 1.424773 -0.200000
v -0.658878 1.400000 -0.200000
v -1.000000 1.428613 0.200000
v -0.600000 1.575624 0.200000
v -1.000000 1.400000 0.133564
v -1.000000 1.294721 -0.200000
v -1.000000 1.719893 0.600000
v -0.785846 1.800000 0.600000
v -0.600000 1.800000 0.496084
v -0.600000 1.913553 0.600000
v -1.000000 1.800000 0.674850
v -1.000000 2.200000 0.925430
v -0.600000 2.200000 0.782612
v -1.000000 2.431446 1.000000
v -0.859362 2.600000 1.000000
v -0.600000 2.600000 0.902559
v -0.855889 3.000000 1.000000
v -0.600000 3.000000 0.903774
v -1.000000 3.176155 1.000000
v -1.000000 3.400000 0.928770
v -0.600000 3.400000 0.785805
v -1.000000 3.800000 0.680796
v -0.771353 3.800000 0.600000
v -0.600000 3.693473 0.600000
v -1.000000 3.887007 0.600000
v -1.000000 4.178230 0.200000
v -0.600000 4.032084 0.200000
v -0.600000 3.800000 0.503514
v -1.000000 4.200000 0.149832
v -0.642452 4.200000 -0.200000
v -0.600000 4.182003 -0.200000
v -1.000000 4.313690 -0.200000
v -1.000000 4.339228 -0.600000
v -0.600000 4.206591 -0.600000
v -0.600000 4.200000 -0.327166
v -1.000000 4.255661 -1.000000
v -0.802689 4.200000 -1.000000
v -0.600000 4.200000 -0.650168
v -0.600000 4.115838 -1.000000
v -1.000000 4.043095 -1.400000
v -1.000000 4.200000 -1.128651
v -0.588052 4.200000 -0.600000
v -0.200000 3.800000 0.043868
v -0.291827 3.800000 0.200000
v -0.200000 3.699477 0.200000
v -0.200000 3.400000 0.472216
v -0.329701 3.400000 0.600000
v -0.200000 3.104710 0.600000
v -0.008276 3.400000 0.200000
v 0.111878 3.000000 0.200000
v -0.174021 3.000000 0.600000
v -0.175423 2.600000 0.600000
v 0.110688 2.600000 0.200000
v -0.200000 2.502419 0.600000
v -0.011450 2.200000 0.200000
v -0.200000 2.200000 0.467748
v -0.200000 1.907514 0.200000
v 0.137277 2.200000 -0.200000
v -0.115179 1.800000 -0.200000
v -0.200000 1.800000 0.030037
v -0.200000 1.710176 -0.200000
v -0.200000 1.676924 -0.600000
v -0.299902 1.800000 0.200000
v 0.200000 2.387568 -0.200000
v 0.200000 2.600000 -0.025739
v 0.248180 2.600000 -0.200000
v 0.200000 3.000000 -0.022499
v 0.249151 3.000000 -0.200000
v 0.271783 3.000000 -0.600000
v 0.270894 2.600000 -0.600000
v -0.200000 2.600000 0.624319
v -0.334260 2.200000 0.600000
v -0.200000 3.000000 0.625706
v -1.000000 3.000000 1.037485
v -1.000000 2.600000 1.036477
v -1.400000 2.600000 1.056457
v -1.400000 3.000000 1.057389
v -2.058569 3.800000 -1.400000
v -0.450970 3.000000 -1.800000
v -0.452754 2.600000 -1.800000
v -0.200000 2.600000 -1.601352
v -0.200000 3.000000 -1.602812
v -0.022939 2.600000 -1.400000
v -0.021838 3.000000 -1.400000
v -0.200000 2.200000 -1.446780
vn 0.4131 0.7302 -0.5443
vn 0.4120 0.5986 -0.6870
vn 0.5556 0.6134 -0.5613
vn 0.4691 0.4194 -0.7772
vn 0.6399 0.3616 -0.6781
vn 0.6592 0.4999 -0.5618
vn 0.6666 0.6098 -0.4287
vn 0.7640 0.3581 -0.5367
vn 0.8582 0.3899 -0.3338
vn 0.7554 0.5817 -0.3016
vn 0.6330 0.7139 -0.2993
vn 0.6535 0.7536 -0.0718
vn 0.7947 0.6027 -0.0720
vn 0.6455 0.7438 0.1732
vn 0.7849 0.5945 0.1745
vn 0.8905 0.4128 0.1914
vn 0.9079 0.4120 -0.0780
vn 0.9441 0.2693 0.1901
vn 0.9590 0.2720 -0.0797
vn 0.9216 0.1378 -0.3630
vn 0.9587 0.1465 -0.2439
vn 0.9640 -0.1330 -0.2304
vn 0.9228 -0.1362 -0.3603
vn 0.9562 -0.2821 -0.0773
vn 0.8554 -0.3956 -0.3344
vn 0.9013 -0.4267 -0.0742
vn 0.7920 -0.6062 -0.0727
vn 0.7497 -0.5883 -0.3030
vn 0.6578 -0.4998 -0.5635
vn 0.6570 -0.6172 -0.4330
vn 0.7640 -0.3545 -0.5392
vn 0.6313 -0.7145 -0.3017
vn 0.4561 -0.8252 -0.3332
vn 0.5530 -0.6156 -0.5615
vn 0.4075 -0.7329 -0.5448
vn 0.4136 -0.6004 -0.6844
vn 0.1819 -0.7937 -0.5805
vn 0.1851 -0.6456 -0.7409
vn 0.1850 -0.5228 -0.8321
vn 0.4703 -0.4225 -0.7748
vn 0.3300 -0.4090 -0.8508
vn 0.4494 -0.2806 -0.8481
vn 0.1694 -0.3587 -0.9180
vn 0.3956 -0.1231 -0.9102
vn 0.1806 -0.1328 -0.9745
vn 0.3962 0.1188 -0.9105
vn 0.1802 0.1272 -0.9754
vn 0.4508 0.2785 -0.8480
vn 0.3311 0.4017 -0.8538
vn 0.1703 0.3560 -0.9188
vn 0.1855 0.5207 -0.8334
vn -0.0861 0.5292 -0.8441
vn -0.0782 0.3626 -0.9286
vn 0.1844 0.6435 -0.7429
vn -0.0846 0.6506 -0.7547
vn -0.3279 0.4969 -0.8034
vn -0.3316 0.6153 -0.7152
vn -0.3266 0.7622 -0.5589
vn -0.0844 0.8047 -0.5877
vn -0.3690 0.8566 -0.3607
vn -0.0863 0.8858 -0.4560
vn -0.2417 0.9009 -0.3606
vn -0.0781 0.9510 -0.2991
vn -0.3069 0.9493 -0.0690
vn -0.3542 0.9084 -0.2223
vn -0.0808 0.9941 -0.0717
vn -0.3007 0.9386 0.1694
vn -0.0772 0.9795 0.1860
vn -0.0820 0.9293 0.3602
vn -0.3357 0.8823 0.3299
vn -0.3436 0.8163 0.4644
vn -0.0849 0.8687 0.4880
vn -0.0806 0.7488 0.6578
vn -0.2389 0.6535 0.7183
vn -0.3795 0.6746 0.6332
vn -0.3718 0.5607 0.7399
vn -0.0852 0.5962 0.7983
vn -0.0854 0.4106 0.9078
vn -0.3383 0.3958 0.8538
vn -0.3700 0.1382 0.9187
vn -0.0854 0.2669 0.9599
vn -0.2429 0.1459 0.9590
vn -0.3690 -0.1383 0.9191
vn -0.2326 -0.1339 0.9633
vn -0.3438 -0.3959 0.8515
vn -0.0833 -0.2741 0.9581
vn -0.0815 -0.4215 0.9032
vn -0.3716 -0.5626 0.7386
vn -0.0786 -0.6031 0.7938
vn -0.2371 -0.6445 0.7269
vn -0.0801 -0.7493 0.6574
vn -0.3448 -0.8192 0.4582
vn -0.3740 -0.6790 0.6317
vn -0.0809 -0.8721 0.4825
vn -0.0826 -0.9313 0.3548
vn -0.3403 -0.8836 0.3216
vn -0.3004 -0.9389 0.1678
vn -0.0768 -0.9799 0.1839
vn -0.0793 -0.9944 -0.0699
vn -0.3053 -0.9500 -0.0660
vn -0.0755 -0.9518 -0.2974
vn -0.2335 -0.9076 -0.3488
vn -0.3552 -0.9079 -0.2226
vn -0.3703 -0.8559 -0.3610
vn -0.0872 -0.8851 -0.4571
vn -0.0841 -0.8061 -0.5858
vn -0.3240 -0.7655 -0.5559
vn -0.0848 -0.6528 -0.7528
vn -0.3309 -0.6177 -0.7134
vn -0.3272 -0.4996 -0.8021
vn -0.0863 -0.5312 -0.8429
vn -0.0781 -0.3662 -0.9273
vn -0.3082 -0.3533 -0.8833
vn -0.0793 -0.1351 -0.9877
vn -0.3267 -0.1307 -0.9361
vn -0.0795 0.1299 -0.9883
vn -0.3268 0.1257 -0.9367
vn -0.3084 0.3492 -0.8848
vn -0.4532 0.3782 -0.8072
vn -0.4970 0.1339 -0.8574
vn -0.6204 0.1305 -0.7733
vn -0.5785 0.3773 -0.7232
vn -0.6198 -0.1353 -0.7730
vn -0.4963 -0.1390 -0.8570
vn -0.5769 -0.3812 -0.7224
vn -0.4515 -0.3827 -0.8060
vn -0.7809 -0.1358 -0.6097
vn -0.7308 -0.3816 -0.5660
vn -0.8125 -0.3839 -0.4387
vn -0.8635 -0.1401 -0.4845
vn -0.7811 0.1310 -0.6105
vn -0.8639 0.1349 -0.4852
vn -0.7316 0.3776 -0.5676
vn -0.8136 0.3793 -0.4405
vn -0.8100 0.4927 -0.3180
vn -0.6056 0.5274 -0.5959
vn -0.6054 0.6394 -0.4740
vn -0.7220 0.6119 -0.3229
vn -0.5655 0.7613 -0.3174
vn -0.8495 0.5218 -0.0777
vn -0.7601 0.6454 -0.0757
vn -0.8359 0.5145 0.1912
vn -0.7451 0.6382 0.1937
vn -0.5869 0.7867 0.1914
vn -0.5935 0.8013 -0.0752
vn -0.5482 0.7237 0.4192
vn -0.6865 0.5926 0.4213
vn -0.4654 0.8816 -0.0785
vn -0.4575 0.8695 0.1861
vn -0.7749 0.4148 0.4769
vn -0.8533 0.4014 0.3328
vn -0.8486 0.2698 0.4551
vn -0.9086 0.1139 0.4019
vn -0.9746 0.1249 0.1857
vn -0.9208 0.3496 0.1732
vn -0.9078 -0.1153 0.4033
vn -0.9742 -0.1293 0.1852
vn -0.8468 -0.2739 0.4560
vn -0.8529 -0.4038 0.3309
vn -0.9193 -0.3543 0.1714
vn -0.8342 -0.5174 0.1908
vn -0.8481 -0.5241 -0.0781
vn -0.9295 -0.3621 -0.0703
vn -0.8087 -0.4953 -0.3171
vn -0.8873 -0.3519 -0.2981
vn -0.9399 -0.1315 -0.3152
vn -0.9884 -0.1346 -0.0697
vn -0.9405 0.1264 -0.3153
vn -0.9891 0.1295 -0.0695
vn -0.7434 -0.6396 0.1955
vn -0.7581 -0.6478 -0.0757
vn -0.5807 -0.7904 0.1952
vn -0.5911 -0.8032 -0.0740
vn -0.5637 -0.7632 -0.3159
vn -0.7202 -0.6145 -0.3221
vn -0.6036 -0.6429 -0.4715
vn -0.5471 -0.7254 0.4178
vn -0.6823 -0.5972 0.4217
vn -0.5624 -0.6083 0.5601
vn -0.4562 -0.8705 0.1847
vn -0.4637 -0.8827 -0.0761
vn -0.7736 -0.4176 0.4766
vn -0.8169 -0.1315 0.5616
vn -0.7236 -0.1381 0.6763
vn -0.6736 -0.3626 0.6440
vn -0.8203 0.1203 0.5592
vn -0.7241 0.1328 0.6767
vn -0.5650 -0.1323 0.8144
vn -0.5652 0.1275 0.8151
vn -0.6735 0.3630 0.6440
vn -0.5429 0.3590 0.7592
vn -0.5653 0.4956 0.6594
vn -0.5428 -0.3629 0.7574
vn -0.5655 -0.4966 0.6585
vn -0.9309 0.3584 -0.0698
vn -0.5673 0.6034 0.5604
vn -0.8888 0.3478 -0.2983
vn -0.6041 -0.5309 -0.5943
vn -0.4792 -0.6477 -0.5924
vn 0.1749 -0.8764 -0.4487
vn 0.1611 -0.9428 -0.2919
vn 0.3182 -0.8904 -0.3254
vn 0.1767 -0.9820 -0.0674
vn 0.3500 -0.9339 -0.0722
vn 0.4788 -0.8746 -0.0758
vn 0.4637 -0.8657 0.1884
vn 0.3343 -0.9229 0.1909
vn 0.1835 -0.8597 0.4767
vn 0.4266 -0.7929 0.4351
vn 0.1940 -0.9153 0.3529
vn 0.1725 -0.9685 0.1797
vn 0.1607 -0.7420 0.6509
vn 0.3069 -0.6345 0.7094
vn 0.4506 -0.6608 0.6003
vn 0.4466 -0.5428 0.7112
vn 0.1603 -0.5961 0.7867
vn 0.1812 -0.4124 0.8928
vn 0.4219 -0.3758 0.8251
vn 0.1808 -0.2641 0.9474
vn 0.3081 -0.1287 0.9426
vn 0.4545 -0.1294 0.8813
vn 0.3098 0.1268 0.9423
vn 0.4541 0.1270 0.8819
vn 0.1817 0.2600 0.9484
vn 0.1839 0.4048 0.8957
vn 0.4207 0.3751 0.8260
vn 0.1631 0.5925 0.7889
vn 0.3107 0.6545 0.6892
vn 0.4487 0.5398 0.7123
vn 0.1620 0.7415 0.6511
vn 0.1852 0.8583 0.4785
vn 0.4264 0.7925 0.4360
vn 0.4504 0.6603 0.6009
vn 0.1953 0.9134 0.3571
vn 0.3428 0.9101 0.2329
vn 0.4709 0.8565 0.2115
vn 0.1725 0.9677 0.1837
vn 0.1741 0.9823 -0.0695
vn 0.3952 0.9176 -0.0430
vn 0.4482 0.8917 0.0634
vn 0.1601 0.9424 -0.2936
vn 0.3202 0.8879 -0.3303
vn 0.5087 0.8446 -0.1669
vn 0.4603 0.8211 -0.3374
vn 0.1815 0.7917 -0.5834
vn 0.1707 0.8765 -0.4500
vn 0.5441 0.8367 -0.0632
vn 0.6950 0.6437 0.3203
vn 0.5950 0.6530 0.4687
vn 0.7056 0.5401 0.4587
vn 0.6997 0.3923 0.5971
vn 0.5880 0.3917 0.7077
vn 0.6843 0.2273 0.6929
vn 0.8195 0.3778 0.4310
vn 0.8751 0.1271 0.4671
vn 0.7606 0.0921 0.6426
vn 0.7606 -0.1054 0.6406
vn 0.8745 -0.1329 0.4665
vn 0.6819 -0.2413 0.6905
vn 0.8191 -0.3775 0.4320
vn 0.6984 -0.3955 0.5965
vn 0.7042 -0.5435 0.4568
vn 0.8899 -0.4130 0.1936
vn 0.7826 -0.5984 0.1717
vn 0.7018 -0.6367 0.3196
vn 0.6437 -0.7457 0.1717
vn 0.6502 -0.7562 -0.0732
vn 0.5922 -0.6612 0.4606
vn 0.9434 -0.2712 0.1910
vn 0.9361 -0.1356 0.3246
vn 0.9808 -0.1126 0.1592
vn 0.9378 0.1270 0.3230
vn 0.9812 0.1089 0.1593
vn 0.9910 0.1136 -0.0712
vn 0.9906 -0.1171 -0.0709
vn 0.6316 -0.1049 0.7681
vn 0.5874 -0.3953 0.7062
vn 0.6336 0.0920 0.7682
vn 0.1486 0.1041 0.9834
vn 0.1485 -0.1080 0.9830
vn -0.0704 -0.1124 0.9912
vn -0.0707 0.1087 0.9916
vn -0.4837 0.6406 -0.5963
vn 0.5586 0.1306 -0.8191
vn 0.5579 -0.1338 -0.8190
vn 0.6764 -0.1379 -0.7235
vn 0.6768 0.1327 -0.7241
vn 0.8180 -0.1302 -0.5603
vn 0.8187 0.1255 -0.5604
vn 0.6386 -0.3664 -0.6767
s 1
f 3//3 2//2 1//1
f 3//3 6//6 5//5 4//4
f 2//2 3//3 4//4
f 3//3 7//7 6//6
f 10//10 9//9 8//8 6//6
f 7//7 10//10 6//6
f 10//10 7//7 11//11
f 13//13 10//10 11//11 12//12
f 15//15 13//13 12//12 14//14
f 17//17 13//13 15//15 16//16
f 19//19 17//17 16//16 18//18
f 20//20 9//9 17//17 19//19
f 21//21 20//20 19//19
f 23//23 20//20 21//21 22//22
f 25//25 23//23 22//22 24//24
f 26//26 25//25 24//24
f 28//28 25//25 26//26 27//27
f 25//25 28//28 30//30 29//29
f 31//31 25//25 29//29
f 30//30 28//28 32//32
f 34//34 30//30 32//32 33//33
f 35//35 34//34 33//33
f 36//36 34//34 35//35
f 38//38 36//36 35//35 37//37
f 40//40 36//36 38//38 39//39
f 41//41 40//40 39//39
f 40//40 41//41 42//42
f 44//44 42//42 41//41 43//43
f 45//45 44//44 43//43
f 47//47 46//46 44//44 45//45
f 49//49 48//48 46//46 47//47
f 50//50 49//49 47//47
f 49//49 50//50 51//51
f 51//51 50//50 53//53 52//52
f 55//55 54//54 51//51 52//52
f 57//57 55//55 52//52 56//56
f 59//59 55//55 57//57 58//58
f 61//61 59//59 58//58 60//60
f 62//62 61//61 60//60
f 61//61 62//62 63//63
f 63//63 62//62 65//65 64//64
f 66//66 63//63 64//64
f 68//68 66//66 64//64 67//67
f 70//70 69//69 68//68 67//67
f 72//72 69//69 70//70 71//71
f 74//74 73//73 72//72 71//71
f 75//75 74//74 71//71
f 74//74 75//75 76//76
f 78//78 77//77 74//74 76//76
f 79//79 78//78 76//76
f 81//81 78//78 79//79 80//80
f 82//82 81//81 80//80
f 84//84 82//82 80//80 83//83
f 86//86 84//84 83//83 85//85
f 87//87 86//86 85//85
f 89//89 87//87 85//85 88//88
f 90//90 89//89 88//88
f 89//89 90//90 91//91
f 91//91 90//90 93//93 92//92
f 94//94 91//91 92//92
f 96//96 95//95 94//94 92//92
f 98//98 95//95 96//96 97//97
f 100//100 99//99 98//98 97//97
f 102//102 101//101 99//99 100//100
f 103//103 102//102 100//100
f 102//102 103//103 104//104
f 106//106 105//105 102//102 104//104
f 107//107 106//106 104//104
f 109//109 108//108 106//106 107//107
f 111//111 108//108 109//109 110//110
f 113//113 112//112 111//111 110//110
f 115//115 114//114 112//112 113//113
f 117//117 116//116 114//114 115//115
f 118//118 53//53 116//116 117//117
f 120//120 119//119 118//118 117//117
f 118//118 119//119 56//56
f 122//122 119//119 120//120 121//121
f 121//121 120//120 124//124 123//123
f 123//123 124//124 126//126 125//125
f 128//128 127//127 123//123 125//125
f 130//130 127//127 128//128 129//129
f 132//132 131//131 127//127 130//130
f 134//134 133//133 131//131 132//132
f 136//136 133//133 134//134 135//135
f 138//138 137//137 136//136 135//135
f 137//137 138//138 139//139
f 122//122 133//133 136//136
f 141//141 138//138 135//135 140//140
f 143//143 141//141 140//140 142//142
f 145//145 141//141 143//143 144//144
f 144//144 143//143 147//147 146//146
f 149//149 148//148 145//145 144//144
f 65//65 60//60 139//139 145//145
f 148//148 65//65 145//145
f 150//150 147//147 143//143 142//142
f 151//151 150//150 142//142
f 150//150 151//151 152//152
f 155//155 154//154 153//153 152//152
f 151//151 155//155 152//152
f 153//153 154//154 157//157 156//156
f 157//157 160//160 159//159 158//158
f 156//156 157//157 158//158
f 159//159 160//160 161//161
f 160//160 163//163 162//162 161//161
f 163//163 165//165 164//164 162//162
f 167//167 166//166 165//165 163//163
f 169//169 168//168 166//166 167//167
f 165//165 129//129 164//164
f 162//162 171//171 170//170 161//161
f 170//170 171//171 173//173 172//172
f 171//171 175//175 174//174 173//173
f 175//175 176//176 174//174
f 178//178 170//170 172//172 177//177
f 179//179 178//178 177//177
f 173//173 181//181 180//180 172//172
f 178//178 182//182 159//159 161//161
f 170//170 178//178 161//161
f 157//157 167//167 163//163 160//160
f 183//183 156//156 158//158
f 185//185 184//184 183//183 158//158
f 182//182 185//185 158//158
f 184//184 187//187 186//186 183//183
f 189//189 187//187 184//184 188//188
f 191//191 190//190 187//187 189//189
f 190//190 191//191 192//192
f 188//188 184//184 185//185 193//193
f 193//193 185//185 194//194
f 159//159 182//182 158//158
f 154//154 169//169 167//167 157//157
f 186//186 153//153 156//156 183//183
f 155//155 195//195 169//169 154//154
f 153//153 186//186 152//152
f 147//147 150//150 190//190 192//192
f 196//196 147//147 192//192
f 155//155 151//151 142//142
f 140//140 195//195 155//155 142//142
f 135//135 197//197 195//195 140//140
f 134//134 197//197 135//135
f 168//168 197//197 134//134 132//132
f 166//166 168//168 132//132 130//130
f 198//198 176//176 175//175 164//164
f 129//129 128//128 198//198 164//164
f 199//199 176//176 198//198
f 165//165 166//166 130//130 129//129
f 127//127 131//131 121//121 123//123
f 124//124 120//120 117//117 115//115
f 126//126 124//124 115//115 113//113
f 112//112 43//43 39//39 111//111
f 126//126 113//113 110//110
f 110//110 109//109 199//199 198//198
f 125//125 126//126 110//110 198//198
f 199//199 109//109 107//107
f 37//37 200//200 105//105 106//106
f 105//105 200//200 201//201 101//101
f 200//200 202//202 201//201
f 201//201 202//202 204//204 203//203
f 204//204 202//202 33//33 205//205
f 207//207 204//204 205//205 206//206
f 207//207 206//206 209//209 208//208
f 210//210 207//207 208//208
f 207//207 210//210 211//211
f 209//209 214//214 213//213 212//212
f 208//208 209//209 212//212
f 213//213 214//214 215//215
f 215//215 218//218 217//217 216//216
f 213//213 215//215 216//216
f 218//218 221//221 220//220 219//219
f 217//217 218//218 219//219
f 223//223 222//222 220//220 221//221
f 223//223 226//226 225//225 224//224
f 222//222 223//223 224//224
f 229//229 228//228 227//227 225//225
f 226//226 229//229 225//225
f 227//227 228//228 230//230
f 233//233 232//232 231//231 230//230
f 228//228 233//233 230//230
f 236//236 235//235 234//234 231//231
f 232//232 236//236 231//231
f 234//234 235//235 237//237
f 240//240 239//239 238//238 237//237
f 235//235 240//240 237//237
f 243//243 242//242 241//241 238//238
f 239//239 243//243 238//238
f 242//242 243//243 244//244
f 242//242 244//244 1//1 245//245
f 246//246 242//242 245//245
f 242//242 246//246 241//241
f 247//247 243//243 239//239
f 240//240 247//247 239//239
f 240//240 235//235 236//236
f 248//248 14//14 236//236 232//232
f 249//249 248//248 232//232
f 248//248 249//249 250//250
f 250//250 249//249 233//233 229//229
f 252//252 251//251 250//250 229//229
f 251//251 252//252 253//253
f 255//255 254//254 251//251 253//253
f 256//256 255//255 253//253
f 258//258 255//255 256//256 257//257
f 260//260 258//258 257//257 259//259
f 261//261 260//260 259//259
f 260//260 261//261 262//262
f 264//264 263//263 260//260 262//262
f 265//265 264//264 262//262
f 264//264 265//265 266//266
f 267//267 27//27 264//264 266//266
f 268//268 265//265 262//262
f 258//258 260//260 263//263 269//269
f 270//270 258//258 269//269
f 271//271 270//270 269//269
f 271//271 273//273 272//272 270//270
f 272//272 273//273 18//18
f 275//275 274//274 273//273 271//271
f 24//24 275//275 271//271 269//269
f 257//257 276//276 259//259
f 277//277 261//261 259//259
f 272//272 255//255 258//258 270//270
f 257//257 256//256 278//278 276//276
f 251//251 254//254 250//250
f 77//77 227//227 230//230 73//73
f 233//233 228//228 229//229
f 226//226 252//252 229//229
f 279//279 222//222 224//224
f 253//253 252//252 226//226 223//223
f 278//278 253//253 223//223
f 220//220 222//222 279//279 280//280
f 280//280 279//279 282//282 281//281
f 219//219 280//280 281//281 86//86
f 276//276 278//278 223//223 221//221
f 220//220 280//280 219//219
f 259//259 276//276 221//221 218//218
f 277//277 259//259 218//218
f 277//277 218//218 215//215
f 213//213 216//216 212//212
f 268//268 214//214 209//209
f 266//266 265//265 268//268 209//209
f 206//206 266//266 209//209
f 205//205 267//267 266//266 206//206
f 203//203 204//204 207//207 211//211
f 199//199 107//107 104//104 174//174
f 176//176 199//199 174//174
f 104//104 103//103 181//181 173//173
f 174//174 104//104 173//173
f 102//102 105//105 101//101
f 181//181 103//103 100//100
f 99//99 203//203 211//211 98//98
f 180//180 181//181 100//100 97//97
f 211//211 210//210 95//95 98//98
f 96//96 180//180 97//97
f 95//95 210//210 208//208 94//94
f 180//180 96//96 92//92 177//177
f 172//172 180//180 177//177
f 94//94 208//208 212//212 91//91
f 92//92 93//93 179//179 177//177
f 179//179 93//93 88//88 194//194
f 93//93 90//90 88//88
f 216//216 217//217 87//87 89//89
f 88//88 85//85 193//193 194//194
f 281//281 84//84 86//86
f 87//87 217//217 219//219 86//86
f 85//85 83//83 188//188 193//193
f 282//282 82//82 84//84 281//281
f 83//83 80//80 189//189 188//188
f 82//82 282//282 81//81
f 224//224 225//225 78//78 81//81
f 80//80 79//79 191//191 189//189
f 225//225 227//227 77//77 78//78
f 191//191 79//79 76//76 192//192
f 76//76 75//75 196//196 192//192
f 74//74 77//77 73//73
f 196//196 75//75 71//71 146//146
f 231//231 234//234 69//69 72//72
f 70//70 149//149 144//144 146//146
f 71//71 70//70 146//146
f 69//69 234//234 237//237 68//68
f 149//149 70//70 67//67
f 237//237 238//238 66//66 68//68
f 64//64 148//148 149//149 67//67
f 65//65 148//148 64//64
f 241//241 246//246 61//61 63//63
f 65//65 62//62 60//60
f 61//61 246//246 245//245 59//59
f 58//58 283//283 137//137 139//139
f 60//60 58//58 139//139
f 57//57 283//283 58//58
f 56//56 119//119 122//122 136//136
f 283//283 57//57 56//56 136//136
f 52//52 53//53 118//118 56//56
f 49//49 4//4 48//48
f 284//284 46//46 48//48
f 46//46 284//284 285//285 44//44
f 285//285 284//284 287//287 286//286
f 287//287 289//289 288//288 286//286
f 5//5 8//8 289//289 287//287
f 286//286 288//288 31//31 290//290
f 116//116 47//47 45//45 114//114
f 44//44 285//285 42//42
f 114//114 45//45 43//43 112//112
f 286//286 290//290 40//40 42//42
f 285//285 286//286 42//42
f 43//43 41//41 39//39
f 108//108 38//38 37//37 106//106
f 33//33 32//32 267//267 205//205
f 33//33 202//202 200//200 37//37
f 35//35 33//33 37//37
f 290//290 31//31 29//29
f 30//30 34//34 29//29
f 27//27 26//26 263//263 264//264
f 31//31 288//288 23//23 25//25
f 263//263 26//26 24//24 269//269
f 22//22 275//275 24//24
f 288//288 289//289 20//20 23//23
f 21//21 274//274 275//275 22//22
f 254//254 255//255 272//272 18//18
f 16//16 254//254 18//18
f 273//273 274//274 19//19 18//18
f 16//16 15//15 248//248 250//250
f 254//254 16//16 250//250
f 248//248 15//15 14//14
f 12//12 247//247 240//240 236//236
f 14//14 12//12 236//236
f 289//289 8//8 9//9 20//20
f 9//9 10//10 13//13 17//17
f 8//8 5//5 6//6
f 2//2 4//4 49//49 51//51
f 54//54 2//2 51//51
f 7//7 3//3 1//1 244//244
f 11//11 7//7 244//244
f 1//1 2//2 54//54 245//245
f 5//5 287//287 284//284 48//48
f 4//4 5//5 48//48
f 290//290 29//29 34//34 36//36
f 40//40 290//290 36//36
f 247//247 12//12 11//11 244//244
f 243//243 247//247 244//244
f 274//274 21//21 19//19
f 32//32 28//28 27//27 267//267
f 233//233 249//249 232//232
f 278//278 256//256 253//253
f 262//262 261//261 277//277 215//215
f 214//214 268//268 262//262 215//215
f 245//245 54//54 55//55 59//59
f 53//53 50//50 47//47 116//116
f 39//39 38//38 108//108 111//111
f 238//238 241//241 63//63 66//66
f 101//101 201//201 203//203 99//99
f 230//230 231//231 72//72 73//73
f 282//282 279//279 224//224 81//81
f 212//212 216//216 89//89 91//91
f 137//137 283//283 136//136
f 131//131 133//133 122//122 121//121
f 128//128 125//125 198//198
f 139//139 138//138 141//141 145//145
f 195//195 197//197 168//168 169//169
f 164//164 175//175 171//171 162//162
f 147//147 196//196 146//146
f 187//187 190//190 150//150 152//152
f 186//186 187//187 152//152
f 182//182 178//178 179//179 194//194
f 185//185 182//182 194//194
