# Blender 4.5.3 LTS
# www.blender.org
mtllib luna.mtl
o Mball
v 0.414399 0.371170 -0.144926
v 0.319563 0.439861 -0.186814
v 0.371094 0.353678 -0.260189
v 0.123447 0.490686 -0.273435
v 0.229155 0.313896 -0.423952
v -0.055846 0.450904 -0.352626
v 0.049862 0.274114 -0.503144
v 0.064133 0.239910 -0.518273
v 0.243427 0.279692 -0.439082
v 0.117427 0.078111 -0.557653
v 0.296721 0.117893 -0.478462
v -0.053832 0.045271 -0.570377
v -0.017441 -0.150732 -0.554304
v 0.153817 -0.117893 -0.541580
v 0.160603 -0.279692 -0.475664
v 0.339897 -0.239910 -0.396472
v 0.333111 -0.078111 -0.462388
v 0.457862 -0.045271 -0.344369
v 0.421472 0.150732 -0.360442
v 0.481229 -0.038329 -0.312615
v 0.444839 0.157675 -0.328688
v 0.570062 -0.002447 -0.076172
v 0.533672 0.193557 -0.092245
v 0.573536 0.001453 -0.036482
v 0.537146 0.197456 -0.052555
v 0.558428 0.012901 0.137330
v 0.522037 0.208905 0.121257
v 0.536871 -0.160346 0.127809
v 0.477622 0.012901 0.320279
v 0.456065 -0.160346 0.310758
v 0.444840 -0.198451 0.305800
v 0.525646 -0.198451 0.122850
v 0.396752 -0.411122 0.065920
v 0.315945 -0.411122 0.248869
v 0.288224 -0.437279 0.236625
v 0.369030 -0.437279 0.053675
v 0.231498 -0.526523 -0.007071
v 0.150691 -0.526523 0.175878
v -0.028602 -0.566304 0.096687
v 0.052204 -0.566304 -0.086262
v -0.187079 -0.542739 0.026690
v -0.106273 -0.542739 -0.156259
v -0.141129 -0.530468 -0.171655
v -0.221935 -0.530468 0.011295
v -0.416475 -0.389560 -0.074631
v -0.335669 -0.389560 -0.257580
v -0.359596 -0.359255 -0.268148
v -0.440402 -0.359255 -0.085199
v -0.522037 -0.208905 -0.121257
v -0.441231 -0.208905 -0.304206
v -0.477622 -0.012901 -0.320279
v -0.558428 -0.012901 -0.137330
v -0.456065 0.160346 -0.310758
v -0.536871 0.160346 -0.127809
v -0.525646 0.198451 -0.122850
v -0.444840 0.198451 -0.305800
v -0.315945 0.411122 -0.248869
v -0.396752 0.411122 -0.065920
v -0.369030 0.437279 -0.053675
v -0.288224 0.437279 -0.236625
v -0.150691 0.526523 -0.175878
v -0.231498 0.526523 0.007071
v 0.028602 0.566304 -0.096687
v -0.052204 0.566304 0.086262
v 0.106273 0.542739 0.156259
v 0.187079 0.542739 -0.026690
v 0.221935 0.530468 -0.011295
v 0.141129 0.530468 0.171655
v 0.335669 0.389560 0.257580
v 0.416475 0.389560 0.074631
v 0.440402 0.359255 0.085199
v 0.359596 0.359255 0.268148
v 0.441231 0.208905 0.304206
v 0.322931 0.197456 0.432439
v 0.359321 0.001453 0.448512
v 0.327644 -0.002447 0.472676
v 0.291253 0.193557 0.456603
v 0.093041 -0.038329 0.566262
v 0.056651 0.157675 0.550189
v 0.053832 -0.045271 0.570377
v 0.017441 0.150732 0.554304
v -0.160603 0.279692 0.475664
v -0.159032 0.313896 0.454925
v 0.057615 0.353678 0.449544
v -0.339897 0.239910 0.396472
v -0.338326 0.274114 0.375733
v -0.457862 0.045271 0.344369
v -0.481229 0.038329 0.312615
v -0.480265 0.234333 0.211970
v -0.460735 0.320516 0.124460
v -0.298264 0.450904 0.196221
v -0.523570 0.216841 0.096706
v -0.421472 -0.150732 0.360442
v -0.444839 -0.157675 0.328688
v -0.533672 -0.193557 0.092245
v -0.570062 0.002447 0.076172
v -0.414399 -0.371170 0.144926
v -0.371094 -0.353678 0.260189
v -0.537146 -0.197456 0.052555
v -0.573536 -0.001453 0.036482
v -0.243427 -0.279692 0.439082
v -0.229155 -0.313896 0.423952
v -0.064133 -0.239910 0.518273
v -0.049862 -0.274114 0.503144
v -0.123447 -0.490686 0.273435
v 0.055846 -0.450904 0.352626
v 0.073515 -0.470118 0.322276
v -0.105779 -0.509900 0.243084
v -0.296721 -0.117893 0.478462
v -0.117427 -0.078111 0.557653
v -0.333111 0.078111 0.462388
v -0.153817 0.117893 0.541580
v -0.319563 -0.439861 0.186814
v -0.118971 0.490686 0.275412
v -0.287730 0.470118 0.162719
v -0.108436 0.509900 0.241910
v 0.077145 0.439861 0.362034
v 0.171981 0.371170 0.403922
v 0.166786 -0.234333 0.497763
v 0.281152 -0.216840 0.452141
v 0.218317 -0.320516 0.424388
v -0.073515 0.470118 -0.322276
v 0.105779 0.509900 -0.243084
v -0.281152 0.216840 -0.452141
v -0.218317 0.320516 -0.424388
v -0.166786 0.234333 -0.497763
v -0.327644 0.002447 -0.472676
v -0.093041 0.038329 -0.566262
v -0.291253 -0.193557 -0.456603
v -0.056651 -0.157675 -0.550189
v -0.171981 -0.371170 -0.403922
v -0.057615 -0.353678 -0.449544
v -0.077145 -0.439861 -0.362034
v 0.118971 -0.490686 -0.275412
v 0.159032 -0.313896 -0.454925
v 0.298264 -0.450904 -0.196221
v 0.338326 -0.274114 -0.375733
v 0.460735 -0.320516 -0.124460
v 0.480265 -0.234333 -0.211970
v 0.523570 -0.216841 -0.096706
v 0.108436 -0.509900 -0.241910
v 0.287730 -0.470118 -0.162719
v -0.359321 -0.001453 -0.448512
v -0.322931 -0.197456 -0.432439
vn 0.7474 0.6290 -0.2139
vn 0.5194 0.7940 -0.3158
vn 0.6426 0.5867 -0.4928
vn 0.2494 0.8186 -0.5174
vn 0.3848 0.6037 -0.6982
vn -0.0801 0.7408 -0.6669
vn 0.0554 0.5265 -0.8484
vn 0.1208 0.3578 -0.9259
vn 0.4658 0.4508 -0.7614
vn 0.2184 0.1266 -0.9676
vn 0.5091 0.1912 -0.8392
vn -0.0414 0.1004 -0.9941
vn 0.0373 -0.2653 -0.9634
vn 0.2774 -0.1912 -0.9415
vn 0.2491 -0.4508 -0.8572
vn 0.6031 -0.3578 -0.7129
vn 0.5681 -0.1266 -0.8131
vn 0.7627 -0.1004 -0.6389
vn 0.6870 0.2653 -0.6765
vn 0.8773 -0.0553 -0.4767
vn 0.8025 0.2927 -0.5199
vn 0.9798 -0.0264 -0.1985
vn 0.9148 0.3381 -0.2210
vn 0.9995 -0.0257 -0.0157
vn 0.9311 0.3639 -0.0269
vn 0.9676 0.0347 0.2501
vn 0.9086 0.3525 0.2241
vn 0.9524 -0.2339 0.1957
vn 0.8366 0.0347 0.5468
vn 0.7998 -0.2250 0.5564
vn 0.7446 -0.4177 0.5207
vn 0.8933 -0.4078 0.1888
vn 0.7319 -0.6701 0.1236
vn 0.5843 -0.6701 0.4577
vn 0.4459 -0.7988 0.4039
vn 0.5989 -0.7988 0.0575
vn 0.3880 -0.9217 -0.0059
vn 0.2569 -0.9217 0.2907
vn -0.0338 -0.9862 0.1623
vn 0.0973 -0.9862 -0.1343
vn -0.2809 -0.9565 0.0791
vn -0.1308 -0.9565 -0.2609
vn -0.3112 -0.8915 -0.3293
vn -0.4530 -0.8915 -0.0083
vn -0.6846 -0.7214 -0.1040
vn -0.5306 -0.7241 -0.4405
vn -0.6339 -0.5859 -0.5049
vn -0.8053 -0.5732 -0.1511
vn -0.9086 -0.3525 -0.2241
vn -0.7776 -0.3525 -0.5207
vn -0.8366 -0.0347 -0.5468
vn -0.9676 -0.0347 -0.2501
vn -0.7861 0.2339 -0.5721
vn -0.9524 0.2339 -0.1957
vn -0.8933 0.4078 -0.1888
vn -0.7412 0.4078 -0.5332
vn -0.5843 0.6701 -0.4577
vn -0.7333 0.6683 -0.1254
vn -0.6000 0.7977 -0.0604
vn -0.4459 0.7988 -0.4039
vn -0.2569 0.9217 -0.2907
vn -0.3880 0.9217 0.0059
vn 0.0338 0.9862 -0.1623
vn -0.0973 0.9862 0.1343
vn 0.1308 0.9502 0.2827
vn 0.2809 0.9565 -0.0791
vn 0.4530 0.8915 0.0083
vn 0.2970 0.8934 0.3370
vn 0.5392 0.7194 0.4378
vn 0.6830 0.7241 0.0956
vn 0.8002 0.5859 0.1285
vn 0.6542 0.5711 0.4959
vn 0.7776 0.3525 0.5207
vn 0.5867 0.3776 0.7164
vn 0.6742 -0.0052 0.7385
vn 0.5168 -0.0191 0.8559
vn 0.4442 0.3427 0.8278
vn 0.2226 -0.0652 0.9727
vn 0.1746 0.2887 0.9414
vn 0.0316 -0.1058 0.9939
vn -0.0262 0.2638 0.9642
vn -0.2675 0.4323 0.8611
vn -0.2643 0.5987 0.7561
vn 0.0696 0.5880 0.8059
vn -0.6180 0.3690 0.6942
vn -0.5950 0.5287 0.6054
vn -0.7559 0.1058 0.6461
vn -0.8689 0.0652 0.4906
vn -0.8237 0.3887 0.4128
vn -0.7775 0.5957 0.2015
vn -0.5382 0.7399 0.4037
vn -0.9296 0.3443 0.1316
vn -0.6951 -0.2638 0.6688
vn -0.8134 -0.2887 0.5050
vn -0.9138 -0.3292 0.2378
vn -0.9798 0.0264 0.1985
vn -0.7463 -0.6298 0.2153
vn -0.6426 -0.5880 0.4913
vn -0.9323 -0.3597 0.0373
vn -0.9995 0.0257 0.0157
vn -0.4564 -0.4323 0.7777
vn -0.3808 -0.5987 0.7046
vn -0.0969 -0.3690 0.9244
vn -0.0467 -0.5287 0.8475
vn -0.2494 -0.8186 0.5174
vn 0.0801 -0.7408 0.6669
vn 0.1764 -0.8261 0.5352
vn -0.1677 -0.9151 0.3666
vn -0.5091 -0.1912 0.8392
vn -0.2184 -0.1266 0.9676
vn -0.5681 0.1266 0.8131
vn -0.2774 0.1912 0.9415
vn -0.5194 -0.7940 0.3158
vn -0.2091 0.8160 0.5389
vn -0.4950 0.8378 0.2305
vn -0.1455 0.9080 0.3930
vn 0.1146 0.7972 0.5928
vn 0.3453 0.6290 0.6965
vn 0.2496 -0.3887 0.8869
vn 0.5248 -0.3475 0.7771
vn 0.3743 -0.5972 0.7094
vn -0.1764 0.8261 -0.5352
vn 0.1677 0.9151 -0.3666
vn -0.5288 0.3443 -0.7758
vn -0.3743 0.5972 -0.7094
vn -0.2511 0.3896 -0.8861
vn -0.5132 0.0264 -0.8579
vn -0.2385 0.0553 -0.9696
vn -0.4528 -0.3381 -0.8250
vn -0.1562 -0.2927 -0.9434
vn -0.3453 -0.6290 -0.6965
vn -0.0685 -0.5867 -0.8069
vn -0.1163 -0.7940 -0.5966
vn 0.2145 -0.8186 -0.5329
vn 0.2570 -0.6037 -0.7547
vn 0.5469 -0.7408 -0.3900
vn 0.5898 -0.5265 -0.6123
vn 0.7764 -0.5972 -0.2011
vn 0.8241 -0.3896 -0.4111
vn 0.9296 -0.3443 -0.1316
vn 0.1581 -0.9151 -0.3709
vn 0.5144 -0.8261 -0.2300
vn -0.6616 0.0257 -0.7494
vn -0.6072 -0.3639 -0.7063
s 1
f 3//3 2//2 1//1
f 2//2 3//3 5//5 4//4
f 4//4 5//5 7//7 6//6
f 7//7 5//5 9//9 8//8
f 9//9 11//11 10//10 8//8
f 8//8 10//10 12//12
f 12//12 10//10 14//14 13//13
f 14//14 15//15 13//13
f 14//14 17//17 16//16 15//15
f 16//16 17//17 18//18
f 17//17 11//11 19//19 18//18
f 19//19 21//21 20//20 18//18
f 20//20 21//21 23//23 22//22
f 23//23 25//25 24//24 22//22
f 24//24 25//25 27//27 26//26
f 28//28 24//24 26//26
f 30//30 28//28 26//26 29//29
f 32//32 28//28 30//30 31//31
f 34//34 33//33 32//32 31//31
f 36//36 33//33 34//34 35//35
f 38//38 37//37 36//36 35//35
f 40//40 37//37 38//38 39//39
f 42//42 40//40 39//39 41//41
f 44//44 43//43 42//42 41//41
f 46//46 43//43 44//44 45//45
f 48//48 47//47 46//46 45//45
f 50//50 47//47 48//48 49//49
f 52//52 51//51 50//50 49//49
f 54//54 53//53 51//51 52//52
f 56//56 53//53 54//54 55//55
f 58//58 57//57 56//56 55//55
f 60//60 57//57 58//58 59//59
f 62//62 61//61 60//60 59//59
f 64//64 63//63 61//61 62//62
f 66//66 63//63 64//64 65//65
f 68//68 67//67 66//66 65//65
f 70//70 67//67 68//68 69//69
f 72//72 71//71 70//70 69//69
f 27//27 71//71 72//72 73//73
f 72//72 74//74 73//73
f 73//73 74//74 75//75 29//29
f 75//75 74//74 77//77 76//76
f 77//77 79//79 78//78 76//76
f 78//78 79//79 81//81 80//80
f 84//84 83//83 82//82 81//81
f 79//79 84//84 81//81
f 82//82 83//83 86//86 85//85
f 86//86 89//89 88//88 87//87
f 85//85 86//86 87//87
f 89//89 86//86 91//91 90//90
f 89//89 90//90 92//92
f 87//87 88//88 94//94 93//93
f 94//94 88//88 96//96 95//95
f 98//98 94//94 95//95 97//97
f 96//96 100//100 99//99 95//95
f 98//98 102//102 101//101 93//93
f 94//94 98//98 93//93
f 102//102 104//104 103//103 101//101
f 106//106 104//104 102//102 105//105
f 108//108 107//107 106//106 105//105
f 103//103 110//110 109//109 101//101
f 110//110 103//103 80//80
f 110//110 112//112 111//111 109//109
f 105//105 102//102 98//98 113//113
f 101//101 109//109 93//93
f 109//109 111//111 87//87 93//93
f 111//111 85//85 87//87
f 86//86 83//83 114//114 91//91
f 114//114 116//116 115//115 91//91
f 111//111 112//112 82//82 85//85
f 83//83 84//84 117//117 114//114
f 117//117 84//84 118//118
f 104//104 119//119 78//78 80//80
f 103//103 104//104 80//80
f 81//81 112//112 110//110 80//80
f 118//118 84//84 79//79 77//77
f 76//76 78//78 119//119 120//120
f 119//119 121//121 120//120
f 64//64 116//116 65//65
f 63//63 123//123 122//122 61//61
f 115//115 116//116 64//64 62//62
f 61//61 122//122 60//60
f 115//115 62//62 59//59
f 57//57 125//125 124//124 56//56
f 125//125 126//126 124//124
f 124//124 126//126 128//128 127//127
f 127//127 128//128 130//130 129//129
f 129//129 130//130 132//132 131//131
f 132//132 133//133 131//131
f 132//132 135//135 134//134 133//133
f 135//135 137//137 136//136 134//134
f 137//137 139//139 138//138 136//136
f 138//138 139//139 140//140
f 136//136 142//142 141//141 134//134
f 144//144 143//143 127//127 129//129
f 90//90 58//58 55//55 92//92
f 127//127 143//143 53//53 56//56
f 124//124 127//127 56//56
f 55//55 54//54 100//100 96//96
f 92//92 55//55 96//96
f 100//100 54//54 52//52
f 51//51 143//143 144//144 50//50
f 99//99 100//100 52//52 49//49
f 144//144 47//47 50//50
f 48//48 99//99 49//49
f 144//144 129//129 131//131 46//46
f 47//47 144//144 46//46
f 99//99 48//48 45//45 97//97
f 95//95 99//99 97//97
f 45//45 44//44 113//113 97//97
f 133//133 134//134 141//141 42//42
f 43//43 133//133 42//42
f 41//41 108//108 105//105 113//113
f 44//44 41//41 113//113
f 141//141 40//40 42//42
f 39//39 108//108 41//41
f 141//141 142//142 37//37 40//40
f 38//38 107//107 108//108 39//39
f 107//107 38//38 35//35
f 136//136 138//138 33//33 36//36
f 142//142 136//136 36//36
f 35//35 34//34 121//121 106//106
f 107//107 35//35 106//106
f 33//33 138//138 140//140 32//32
f 121//121 34//34 31//31 120//120
f 75//75 30//30 29//29
f 26//26 27//27 73//73 29//29
f 25//25 23//23 1//1 70//70
f 71//71 25//25 70//70
f 16//16 137//137 135//135 15//15
f 130//130 128//128 12//12 13//13
f 10//10 11//11 17//17 14//14
f 122//122 123//123 4//4 6//6
f 5//5 3//3 21//21 19//19
f 9//9 5//5 19//19
f 2//2 4//4 123//123 66//66
f 67//67 2//2 66//66
f 6//6 7//7 126//126 125//125
f 21//21 3//3 1//1 23//23
f 11//11 9//9 19//19
f 126//126 7//7 8//8 12//12
f 128//128 126//126 12//12
f 139//139 20//20 22//22 140//140
f 139//139 137//137 16//16 18//18
f 20//20 139//139 18//18
f 135//135 132//132 130//130 13//13
f 15//15 135//135 13//13
f 1//1 2//2 67//67 70//70
f 123//123 63//63 66//66
f 6//6 125//125 57//57 60//60
f 122//122 6//6 60//60
f 25//25 71//71 27//27
f 53//53 143//143 51//51
f 22//22 24//24 28//28 32//32
f 140//140 22//22 32//32
f 37//37 142//142 36//36
f 131//131 133//133 43//43 46//46
f 69//69 68//68 117//117 118//118
f 68//68 65//65 116//116 114//114
f 117//117 68//68 114//114
f 115//115 59//59 58//58 90//90
f 91//91 115//115 90//90
f 72//72 69//69 118//118 77//77
f 74//74 72//72 77//77
f 82//82 112//112 81//81
f 88//88 89//89 92//92 96//96
f 30//30 75//75 76//76 120//120
f 31//31 30//30 120//120
f 121//121 119//119 104//104 106//106
f 113//113 98//98 97//97
