# Blender 4.5.3 LTS
# www.blender.org
mtllib Nave.mtl
o Cube
v -1.765842 2.005735 0.210512
v -1.765842 4.005735 0.210512
v -1.765842 2.005735 -1.789488
v -1.765842 4.005735 -1.789488
v 0.234158 2.005735 0.210512
v 0.234158 4.005735 0.210512
v 0.234158 2.005735 -1.789488
v 0.234158 4.005735 -1.789488
v 15.062675 3.779495 -1.075492
v 14.385471 2.005735 -1.789488
v 14.385471 2.005735 0.210512
v 15.062675 3.779495 -0.503483
v 16.226530 3.390674 -1.075492
v 17.669153 2.448802 -1.244468
v 17.644526 2.523010 -1.244468
v 17.285887 2.005735 -1.789488
v 17.644526 2.523010 -0.334508
v 17.285887 2.005735 0.210512
v 16.226530 3.390674 -0.503483
v 17.669153 2.448802 -0.334508
v 14.385471 4.005735 -1.789488
v 14.385471 4.005735 0.210512
v 16.903734 3.164434 -1.789488
v 16.903734 3.164434 0.210512
v 15.061158 3.774954 -1.075492
v 15.061158 3.774954 -0.503483
v 16.225014 3.386132 -1.075492
v 16.225014 3.386132 -0.503483
v 15.061158 3.774954 -1.656549
v 15.061158 3.774954 -1.084540
v 16.225014 3.386132 -1.656549
v 16.225014 3.386132 -1.084540
v 15.061158 3.774954 0.088418
v 16.225014 3.386132 0.088418
v 15.061158 3.774954 -0.492639
v 16.225014 3.386132 -0.492639
v 14.385471 4.005735 -1.789488
v 16.903734 3.164434 -1.789488
v 15.062675 3.779495 -1.075492
v 16.226530 3.390674 -1.075492
v 7.593464 4.005735 -1.789488
v 7.364951 2.005735 0.210512
v 7.593464 2.005735 -1.789488
v 7.364428 3.973552 0.210512
v 0.234158 2.005735 -8.048000
v 7.601736 1.986496 -1.773447
v 0.217382 2.019959 0.227917
v 7.576688 2.019959 0.227917
v 0.217382 2.236133 6.482696
v 7.584960 2.038633 0.211221
v 0.234158 3.571775 -1.789488
v -1.765842 3.570465 -1.789488
v -1.765842 3.476830 0.210512
v 0.234158 3.476830 0.210512
v -1.765842 4.005735 -2.587915
v 0.234158 4.005735 -2.587915
v 0.234158 3.571775 -2.587915
v -1.765842 3.570465 -2.587915
v -1.765842 4.203136 -1.789488
v 0.234158 4.203136 -1.789488
v -1.765842 4.203136 -2.587915
v 0.234158 4.203136 -2.587915
v -1.765842 3.476830 0.872574
v -1.765842 4.005735 0.872574
v 0.234158 4.005735 0.872574
v 0.234158 3.476830 0.872574
v 0.234158 4.110982 0.210512
v -1.765842 4.110982 0.210512
v 0.234158 4.110982 0.872574
v -1.765842 4.110982 0.872574
v 0.234158 4.005735 -0.981246
v -1.765842 4.005735 -0.981246
v -1.765842 4.005735 -0.561888
v 0.234158 4.005735 -0.561888
v -1.765842 6.979347 -0.561888
v -1.765842 6.979347 -0.981246
v 0.234158 4.013824 -0.981246
v 0.234158 4.013824 -0.561888
v -1.765842 2.990460 -1.789488
v -1.765842 2.990484 0.210512
v -1.765842 2.005735 -0.768678
v -1.765842 2.990472 -0.768721
v -1.699342 2.367356 -1.782700
v -1.699342 2.367356 -0.761889
v -1.765842 2.005735 -0.648545
v -1.765842 2.990474 -0.648545
v -1.765842 2.005735 -0.923567
v -1.765842 2.990470 -0.923567
v -2.990120 2.990460 -1.789488
v -2.990120 2.005735 -1.789488
v -2.990120 2.005735 -0.923567
v -2.990120 2.990470 -0.923567
v -2.976725 2.005735 -0.648545
v -2.976725 2.005735 0.210512
v -2.976725 2.990484 0.210512
v -2.976725 2.990474 -0.648545
v -2.864376 4.005735 -0.561888
v -2.864376 4.005735 -0.981246
v -2.864376 6.979347 -0.561888
v -2.864376 6.979347 -0.981246
vn -0.0000 -0.0000 1.0000
vn -0.0000 -0.0000 -1.0000
vn -0.0000 1.0000 -0.0000
vn -0.0000 -1.0000 -0.0000
vn 0.6981 0.2301 -0.6780
vn 0.8218 -0.5698 -0.0000
vn 0.6830 0.7305 -0.0000
vn 0.6981 0.2301 0.6780
vn -0.9491 -0.3150 -0.0000
vn 0.3169 0.9485 -0.0000
vn -0.9485 0.3167 -0.0000
vn 0.9485 -0.3169 -0.0000
vn -0.3169 -0.9485 -0.0000
vn 1.0000 -0.0000 -0.0000
vn -0.0026 -1.0000 0.0031
vn -0.0026 0.9993 -0.0376
vn 0.0007 -1.0000 -0.0000
vn -1.0000 -0.0000 -0.0000
vn 0.8291 0.5591 -0.0000
vn 0.9835 -0.1809 -0.0000
vt 0.375000 1.000000
vt 0.498094 1.000000
vt 0.375000 0.250000
vt 0.498091 0.250000
vt 0.570591 0.250000
vt 0.570755 0.500000
vt 0.375000 0.500000
vt 0.625000 0.500000
vt 0.625000 0.601030
vt 0.625000 0.653450
vt 0.625000 0.750000
vt 0.375000 0.750000
vt 0.558887 0.750000
vt 0.558887 1.000000
vt 0.125000 0.500000
vt 0.125000 0.750000
vt 0.125000 0.642618
vt 0.125000 0.627601
vt 0.125000 0.608240
vt 0.875000 0.500000
vt 0.875000 0.601030
vt 0.620977 0.750000
vt 0.490341 0.568128
vt 0.509659 0.568127
vt 0.625000 0.500000
vt 0.375000 0.750000
vt 0.509659 0.681872
vt 0.490341 0.681872
vt 0.625000 0.660751
vt 0.625000 0.660751
vt 0.625000 0.589249
vt 0.625000 0.589249
vt 0.625000 0.000000
vt 0.558887 0.000000
vt 0.625000 0.250000
vt 0.625000 1.000000
vt 0.875000 0.750000
vt 0.875000 0.653450
vt 0.498092 0.141760
vt 0.498092 0.122404
vt 0.498092 0.107382
vt 0.498094 0.000000
vt 0.625000 0.096550
vt 0.625000 0.148970
vt 0.375000 0.122399
vt 0.375000 0.141760
vt 0.375000 0.107382
vt 0.375000 0.000000
s 0
f 1/1/1 80/2/1 95/2/1 94/1/1
f 3/3/2 79/4/2 52/5/2 51/6/2 7/7/2
f 8/8/3 71/9/3 74/10/3 6/11/3 22/11/3 37/8/3 41/8/3
f 5/12/1 54/13/1 53/14/1 80/2/1 1/1/1
f 3/15/4 7/7/4 5/12/4 1/16/4 85/17/4 81/18/4 87/19/4
f 8/8/3 4/20/3 72/21/3 71/9/3
f 7/7/2 51/6/2 8/8/2 41/8/2 43/7/2
f 6/11/1 44/22/1 42/12/1 11/12/1 22/11/1
f 5/12/4 7/7/4 43/7/4 10/7/4 11/12/4 42/12/4
f 14/23/5 15/24/5 16/7/5 38/25/5
f 18/26/6 16/7/6 15/24/6 17/27/6
f 38/25/7 24/11/7 20/28/7 14/23/7
f 24/11/8 18/26/8 17/27/8 20/28/8
f 10/7/2 37/8/2 38/25/2 16/7/2
f 15/24/9 14/23/9 20/28/9 17/27/9
f 12/29/2 19/30/2 28/30/2 26/29/2
f 11/12/4 10/7/4 16/7/4 18/26/4
f 22/11/1 11/12/1 18/26/1 24/11/1
f 12/29/10 39/31/10 37/8/10 22/11/10
f 40/32/10 19/30/10 24/11/10 38/25/10
f 9/31/10 13/32/10 23/25/10 21/8/10
f 19/30/10 12/29/10 22/11/10 24/11/10
f 28/30/3 27/32/3 31/32/3 32/30/3
f 19/30/11 40/32/11 27/32/11 28/30/11
f 40/32/1 39/31/1 25/31/1 27/32/1
f 39/31/12 12/29/12 26/29/12 25/31/12
f 29/31/10 30/29/10 32/30/10 31/32/10
f 27/32/13 25/31/13 29/31/13 31/32/13
f 25/31/3 26/29/3 30/29/3 29/31/3
f 30/29/3 26/29/3 33/29/3 35/29/3
f 33/29/10 34/30/10 36/30/10 35/29/10
f 28/30/14 32/30/14 36/30/14 34/30/14
f 32/30/10 30/29/10 35/29/10 36/30/10
f 26/29/13 28/30/13 34/30/13 33/29/13
f 21/8/3 23/25/3 38/25/3 37/8/3
f 13/32/3 9/31/3 39/31/3 40/32/3
f 9/31/3 21/8/3 37/8/3 39/31/3
f 23/25/3 13/32/3 40/32/3 38/25/3
f 43/7/2 41/8/2 37/8/2 10/7/2
f 42/12/1 44/22/1 6/11/1 54/13/1 5/12/1
f 43/7/15 7/7/15 45/7/15 46/7/15
f 48/7/16 47/7/16 49/7/16 50/7/16
f 51/6/17 52/5/17 58/5/17 57/6/17
f 2/33/18 53/34/18 63/34/18 64/33/18
f 57/6/2 58/5/2 55/35/2 56/8/2
f 8/8/14 51/6/14 57/6/14 56/8/14
f 55/35/18 4/35/18 59/35/18 61/35/18
f 52/5/18 4/35/18 55/35/18 58/5/18
f 59/20/3 60/8/3 62/8/3 61/20/3
f 4/20/1 8/8/1 60/8/1 59/20/1
f 8/8/14 56/8/14 62/8/14 60/8/14
f 56/8/2 55/35/2 61/35/2 62/8/2
f 63/14/1 66/13/1 65/11/1 64/36/1
f 54/13/14 6/11/14 65/11/14 66/13/14
f 65/11/14 6/11/14 67/11/14 69/11/14
f 53/14/4 54/13/4 66/13/4 63/14/4
f 67/11/3 68/37/3 70/37/3 69/11/3
f 6/11/2 2/37/2 68/37/2 67/11/2
f 2/33/18 64/33/18 70/33/18 68/33/18
f 64/36/1 65/11/1 69/11/1 70/36/1
f 77/9/19 76/21/19 75/38/19 78/10/19
f 71/9/2 72/21/2 76/21/2 77/9/2
f 74/10/3 73/38/3 2/37/3 6/11/3
f 73/38/1 74/10/1 78/10/1 75/38/1
f 75/38/3 76/21/3 100/21/3 99/38/3
f 74/10/14 71/9/14 77/9/14 78/10/14
f 81/18/20 87/19/20 3/15/20 83/15/20 84/18/20
f 79/4/18 88/39/18 82/40/18 86/41/18 80/42/18 53/34/18 2/33/18 73/43/18 72/44/18 4/35/18 52/5/18
f 81/45/18 82/40/18 88/39/18 87/46/18
f 85/47/18 86/41/18 82/40/18 81/45/18
f 87/46/1 88/39/1 92/39/1 91/46/1
f 91/46/18 92/39/18 89/4/18 90/3/18
f 3/15/4 87/19/4 91/19/4 90/15/4
f 79/4/2 3/3/2 90/3/2 89/4/2
f 88/39/3 79/4/3 89/4/3 92/39/3
f 94/48/18 95/42/18 96/41/18 93/47/18
f 85/17/4 1/16/4 94/16/4 93/17/4
f 80/42/3 86/41/3 96/41/3 95/42/3
f 86/41/2 85/47/2 93/47/2 96/41/2
f 98/44/18 97/43/18 99/43/18 100/44/18
f 73/38/1 75/38/1 99/38/1 97/38/1
f 72/44/4 73/43/4 97/43/4 98/44/4
f 76/21/2 72/21/2 98/21/2 100/21/2
